<mxfile host="app.diagrams.net" agent="Mozilla/5.0 (Windows NT 10.0; Win64; x64) AppleWebKit/537.36 (KHTML, like Gecko) Chrome/130.0.0.0 Safari/537.36" version="24.8.3">
  <diagram name="Страница — 1" id="makA7PLNsKRJV_luPOr2">
    <mxGraphModel dx="1687" dy="918" grid="1" gridSize="10" guides="1" tooltips="1" connect="1" arrows="1" fold="1" page="1" pageScale="1" pageWidth="1169" pageHeight="1654" math="0" shadow="0">
      <root>
        <mxCell id="0" />
        <mxCell id="1" parent="0" />
        <mxCell id="_fQn4t52__LoIT0vjmLo-5" style="edgeStyle=orthogonalEdgeStyle;rounded=0;orthogonalLoop=1;jettySize=auto;html=1;" edge="1" parent="1" source="_fQn4t52__LoIT0vjmLo-1" target="_fQn4t52__LoIT0vjmLo-4">
          <mxGeometry relative="1" as="geometry" />
        </mxCell>
        <mxCell id="_fQn4t52__LoIT0vjmLo-1" value="начало" style="ellipse;whiteSpace=wrap;html=1;" vertex="1" parent="1">
          <mxGeometry x="400" y="40" width="120" height="80" as="geometry" />
        </mxCell>
        <mxCell id="_fQn4t52__LoIT0vjmLo-7" style="edgeStyle=orthogonalEdgeStyle;rounded=0;orthogonalLoop=1;jettySize=auto;html=1;" edge="1" parent="1" source="_fQn4t52__LoIT0vjmLo-4" target="_fQn4t52__LoIT0vjmLo-6">
          <mxGeometry relative="1" as="geometry" />
        </mxCell>
        <mxCell id="_fQn4t52__LoIT0vjmLo-4" value="Ввод Х0,&amp;nbsp;&lt;span style=&quot;background-color: initial;&quot;&gt;h;&lt;/span&gt;" style="shape=parallelogram;perimeter=parallelogramPerimeter;whiteSpace=wrap;html=1;fixedSize=1;" vertex="1" parent="1">
          <mxGeometry x="400" y="180" width="120" height="60" as="geometry" />
        </mxCell>
        <mxCell id="_fQn4t52__LoIT0vjmLo-8" style="edgeStyle=orthogonalEdgeStyle;rounded=0;orthogonalLoop=1;jettySize=auto;html=1;entryX=0.592;entryY=0.017;entryDx=0;entryDy=0;entryPerimeter=0;" edge="1" parent="1">
          <mxGeometry relative="1" as="geometry">
            <mxPoint x="631.04" y="351.02" as="targetPoint" />
            <mxPoint x="490" y="330" as="sourcePoint" />
            <Array as="points">
              <mxPoint x="630" y="330" />
            </Array>
          </mxGeometry>
        </mxCell>
        <mxCell id="_fQn4t52__LoIT0vjmLo-17" style="edgeStyle=orthogonalEdgeStyle;rounded=0;orthogonalLoop=1;jettySize=auto;html=1;entryX=0.5;entryY=0;entryDx=0;entryDy=0;" edge="1" parent="1" source="_fQn4t52__LoIT0vjmLo-6" target="_fQn4t52__LoIT0vjmLo-16">
          <mxGeometry relative="1" as="geometry" />
        </mxCell>
        <mxCell id="_fQn4t52__LoIT0vjmLo-6" value="h == 0" style="rhombus;whiteSpace=wrap;html=1;" vertex="1" parent="1">
          <mxGeometry x="420" y="290" width="80" height="80" as="geometry" />
        </mxCell>
        <mxCell id="_fQn4t52__LoIT0vjmLo-12" value="Да" style="text;html=1;align=center;verticalAlign=middle;whiteSpace=wrap;rounded=0;" vertex="1" parent="1">
          <mxGeometry x="520" y="300" width="60" height="30" as="geometry" />
        </mxCell>
        <mxCell id="_fQn4t52__LoIT0vjmLo-15" style="rounded=0;orthogonalLoop=1;jettySize=auto;html=1;exitX=0.5;exitY=1;exitDx=0;exitDy=0;" edge="1" parent="1" source="_fQn4t52__LoIT0vjmLo-13">
          <mxGeometry relative="1" as="geometry">
            <mxPoint x="740" y="1050" as="targetPoint" />
            <Array as="points">
              <mxPoint x="630" y="480" />
              <mxPoint x="1080" y="480" />
              <mxPoint x="1090" y="1050" />
            </Array>
          </mxGeometry>
        </mxCell>
        <mxCell id="_fQn4t52__LoIT0vjmLo-13" value="Вывод: Введён неверный шаг" style="shape=parallelogram;perimeter=parallelogramPerimeter;whiteSpace=wrap;html=1;fixedSize=1;" vertex="1" parent="1">
          <mxGeometry x="570" y="350" width="120" height="60" as="geometry" />
        </mxCell>
        <mxCell id="_fQn4t52__LoIT0vjmLo-16" value="x = x0;&lt;div&gt;Y = 0&lt;/div&gt;&lt;div&gt;points[][]&lt;/div&gt;" style="rounded=0;whiteSpace=wrap;html=1;" vertex="1" parent="1">
          <mxGeometry x="280" y="390" width="120" height="60" as="geometry" />
        </mxCell>
        <mxCell id="_fQn4t52__LoIT0vjmLo-19" value="Нет" style="text;html=1;align=center;verticalAlign=middle;whiteSpace=wrap;rounded=0;" vertex="1" parent="1">
          <mxGeometry x="340" y="300" width="60" height="30" as="geometry" />
        </mxCell>
        <mxCell id="_fQn4t52__LoIT0vjmLo-22" value="" style="endArrow=classic;html=1;rounded=0;" edge="1" parent="1" target="_fQn4t52__LoIT0vjmLo-25">
          <mxGeometry width="50" height="50" relative="1" as="geometry">
            <mxPoint x="340" y="520" as="sourcePoint" />
            <mxPoint x="460" y="545" as="targetPoint" />
            <Array as="points">
              <mxPoint x="460" y="520" />
            </Array>
          </mxGeometry>
        </mxCell>
        <mxCell id="_fQn4t52__LoIT0vjmLo-29" style="edgeStyle=orthogonalEdgeStyle;rounded=0;orthogonalLoop=1;jettySize=auto;html=1;" edge="1" parent="1" source="_fQn4t52__LoIT0vjmLo-25" target="_fQn4t52__LoIT0vjmLo-28">
          <mxGeometry relative="1" as="geometry" />
        </mxCell>
        <mxCell id="_fQn4t52__LoIT0vjmLo-25" value="Y = x^2 - e^x&lt;div&gt;i = 0&lt;/div&gt;" style="rounded=0;whiteSpace=wrap;html=1;" vertex="1" parent="1">
          <mxGeometry x="400" y="550" width="120" height="60" as="geometry" />
        </mxCell>
        <mxCell id="_fQn4t52__LoIT0vjmLo-27" value="" style="endArrow=none;html=1;rounded=0;exitX=0.5;exitY=1;exitDx=0;exitDy=0;" edge="1" parent="1" source="_fQn4t52__LoIT0vjmLo-16">
          <mxGeometry width="50" height="50" relative="1" as="geometry">
            <mxPoint x="200" y="460" as="sourcePoint" />
            <mxPoint x="340" y="520" as="targetPoint" />
          </mxGeometry>
        </mxCell>
        <mxCell id="_fQn4t52__LoIT0vjmLo-30" style="edgeStyle=orthogonalEdgeStyle;rounded=0;orthogonalLoop=1;jettySize=auto;html=1;entryX=0.5;entryY=0;entryDx=0;entryDy=0;" edge="1" parent="1" source="_fQn4t52__LoIT0vjmLo-28" target="_fQn4t52__LoIT0vjmLo-32">
          <mxGeometry relative="1" as="geometry">
            <mxPoint x="270" y="705" as="targetPoint" />
          </mxGeometry>
        </mxCell>
        <mxCell id="_fQn4t52__LoIT0vjmLo-35" style="edgeStyle=orthogonalEdgeStyle;rounded=0;orthogonalLoop=1;jettySize=auto;html=1;entryX=0.5;entryY=0;entryDx=0;entryDy=0;" edge="1" parent="1" source="_fQn4t52__LoIT0vjmLo-28" target="_fQn4t52__LoIT0vjmLo-37">
          <mxGeometry relative="1" as="geometry">
            <mxPoint x="680" y="705" as="targetPoint" />
          </mxGeometry>
        </mxCell>
        <mxCell id="_fQn4t52__LoIT0vjmLo-28" value="-10.001&amp;lt;= Y &amp;lt;= -9.999" style="rhombus;whiteSpace=wrap;html=1;" vertex="1" parent="1">
          <mxGeometry x="385" y="630" width="150" height="150" as="geometry" />
        </mxCell>
        <mxCell id="_fQn4t52__LoIT0vjmLo-31" value="Да" style="text;html=1;align=center;verticalAlign=middle;whiteSpace=wrap;rounded=0;" vertex="1" parent="1">
          <mxGeometry x="310" y="680" width="60" height="30" as="geometry" />
        </mxCell>
        <mxCell id="_fQn4t52__LoIT0vjmLo-33" style="edgeStyle=orthogonalEdgeStyle;rounded=0;orthogonalLoop=1;jettySize=auto;html=1;" edge="1" parent="1" source="_fQn4t52__LoIT0vjmLo-32">
          <mxGeometry relative="1" as="geometry">
            <mxPoint x="170" y="540" as="targetPoint" />
          </mxGeometry>
        </mxCell>
        <mxCell id="_fQn4t52__LoIT0vjmLo-32" value="&lt;div&gt;добавляем точку(x, Y)&lt;/div&gt;x = x + h" style="rounded=0;whiteSpace=wrap;html=1;" vertex="1" parent="1">
          <mxGeometry x="220" y="740" width="130" height="60" as="geometry" />
        </mxCell>
        <mxCell id="_fQn4t52__LoIT0vjmLo-34" value="" style="endArrow=classic;html=1;rounded=0;" edge="1" parent="1">
          <mxGeometry width="50" height="50" relative="1" as="geometry">
            <mxPoint x="170" y="540" as="sourcePoint" />
            <mxPoint x="460" y="540" as="targetPoint" />
            <Array as="points">
              <mxPoint x="190" y="540" />
              <mxPoint x="200" y="540" />
              <mxPoint x="230" y="540" />
              <mxPoint x="340" y="540" />
            </Array>
          </mxGeometry>
        </mxCell>
        <mxCell id="_fQn4t52__LoIT0vjmLo-36" value="Нет" style="text;html=1;align=center;verticalAlign=middle;whiteSpace=wrap;rounded=0;" vertex="1" parent="1">
          <mxGeometry x="580" y="680" width="60" height="30" as="geometry" />
        </mxCell>
        <mxCell id="_fQn4t52__LoIT0vjmLo-50" style="edgeStyle=orthogonalEdgeStyle;rounded=0;orthogonalLoop=1;jettySize=auto;html=1;entryX=0.391;entryY=0;entryDx=0;entryDy=0;entryPerimeter=0;" edge="1" parent="1">
          <mxGeometry relative="1" as="geometry">
            <mxPoint x="561.1600000000003" y="870" as="targetPoint" />
            <mxPoint x="629.5" y="780" as="sourcePoint" />
          </mxGeometry>
        </mxCell>
        <mxCell id="_fQn4t52__LoIT0vjmLo-37" value="points.length != 0" style="rhombus;whiteSpace=wrap;html=1;" vertex="1" parent="1">
          <mxGeometry x="630" y="730" width="100" height="100" as="geometry" />
        </mxCell>
        <mxCell id="_fQn4t52__LoIT0vjmLo-39" value="Нет" style="text;html=1;align=center;verticalAlign=middle;whiteSpace=wrap;rounded=0;" vertex="1" parent="1">
          <mxGeometry x="750" y="750" width="60" height="30" as="geometry" />
        </mxCell>
        <mxCell id="_fQn4t52__LoIT0vjmLo-49" style="edgeStyle=orthogonalEdgeStyle;rounded=0;orthogonalLoop=1;jettySize=auto;html=1;entryX=0.5;entryY=0;entryDx=0;entryDy=0;" edge="1" parent="1" source="_fQn4t52__LoIT0vjmLo-40" target="_fQn4t52__LoIT0vjmLo-48">
          <mxGeometry relative="1" as="geometry" />
        </mxCell>
        <mxCell id="_fQn4t52__LoIT0vjmLo-40" value="Вывод: Точки в диапазон от -10.001 до -9.999 не найдены" style="shape=parallelogram;perimeter=parallelogramPerimeter;whiteSpace=wrap;html=1;fixedSize=1;" vertex="1" parent="1">
          <mxGeometry x="720" y="870" width="190" height="70" as="geometry" />
        </mxCell>
        <mxCell id="_fQn4t52__LoIT0vjmLo-47" style="rounded=0;orthogonalLoop=1;jettySize=auto;html=1;entryX=0.5;entryY=0;entryDx=0;entryDy=0;" edge="1" parent="1" source="_fQn4t52__LoIT0vjmLo-37" target="_fQn4t52__LoIT0vjmLo-40">
          <mxGeometry relative="1" as="geometry">
            <Array as="points">
              <mxPoint x="815" y="780" />
            </Array>
          </mxGeometry>
        </mxCell>
        <mxCell id="_fQn4t52__LoIT0vjmLo-48" value="Конец" style="ellipse;whiteSpace=wrap;html=1;" vertex="1" parent="1">
          <mxGeometry x="680" y="1080" width="120" height="80" as="geometry" />
        </mxCell>
        <mxCell id="_fQn4t52__LoIT0vjmLo-53" style="edgeStyle=orthogonalEdgeStyle;rounded=0;orthogonalLoop=1;jettySize=auto;html=1;" edge="1" parent="1" source="_fQn4t52__LoIT0vjmLo-51" target="_fQn4t52__LoIT0vjmLo-48">
          <mxGeometry relative="1" as="geometry" />
        </mxCell>
        <mxCell id="_fQn4t52__LoIT0vjmLo-51" value="Вывод: Найдены точки в диапазоне от -10.001 до -9.999,&lt;div&gt;Вывод: points&lt;/div&gt;" style="shape=parallelogram;perimeter=parallelogramPerimeter;whiteSpace=wrap;html=1;fixedSize=1;" vertex="1" parent="1">
          <mxGeometry x="460" y="870" width="260" height="70" as="geometry" />
        </mxCell>
        <mxCell id="_fQn4t52__LoIT0vjmLo-52" value="ДА" style="text;html=1;align=center;verticalAlign=middle;whiteSpace=wrap;rounded=0;" vertex="1" parent="1">
          <mxGeometry x="570" y="755" width="60" height="30" as="geometry" />
        </mxCell>
      </root>
    </mxGraphModel>
  </diagram>
</mxfile>
